<svg width="144" height="41" viewBox="0 0 144 41" fill="none" xmlns="http://www.w3.org/2000/svg">
<g clip-path="url(#clip0_689_2892)">
<path d="M17.7393 8.46335C20.1019 8.46335 22.0171 6.56876 22.0171 4.23167C22.0171 1.89459 20.1019 0 17.7393 0C15.3767 0 13.4614 1.89459 13.4614 4.23167C13.4614 6.56876 15.3767 8.46335 17.7393 8.46335Z" fill="url(#paint0_radial_689_2892)"/>
<path d="M17.7393 8.46335C20.1019 8.46335 22.0171 6.56876 22.0171 4.23167C22.0171 1.89459 20.1019 0 17.7393 0C15.3767 0 13.4614 1.89459 13.4614 4.23167C13.4614 6.56876 15.3767 8.46335 17.7393 8.46335Z" fill="url(#paint1_radial_689_2892)"/>
<path d="M6.41629 10.8823C8.27286 10.8823 9.7779 9.39354 9.7779 7.55701C9.7779 5.72049 8.27286 4.23169 6.41629 4.23169C4.55973 4.23169 3.05469 5.72049 3.05469 7.55701C3.05469 9.39354 4.55973 10.8823 6.41629 10.8823Z" fill="url(#paint2_radial_689_2892)"/>
<path d="M6.41629 10.8823C8.27286 10.8823 9.7779 9.39354 9.7779 7.55701C9.7779 5.72049 8.27286 4.23169 6.41629 4.23169C4.55973 4.23169 3.05469 5.72049 3.05469 7.55701C3.05469 9.39354 4.55973 10.8823 6.41629 10.8823Z" fill="url(#paint3_radial_689_2892)"/>
<path d="M12.2233 39.9039C10.9913 39.9039 9.99463 38.9118 9.99463 37.6993C9.99463 36.4806 10.9975 35.4946 12.2233 35.4946C13.4553 35.4946 14.452 36.4867 14.452 37.6993C14.452 38.9118 13.4553 39.9039 12.2233 39.9039Z" fill="url(#paint4_radial_689_2892)"/>
<path d="M12.2233 39.9039C10.9913 39.9039 9.99463 38.9118 9.99463 37.6993C9.99463 36.4806 10.9975 35.4946 12.2233 35.4946C13.4553 35.4946 14.452 36.4867 14.452 37.6993C14.452 38.9118 13.4553 39.9039 12.2233 39.9039Z" fill="url(#paint5_radial_689_2892)"/>
<path d="M4.77605 35.4886C3.54408 35.4886 2.54736 34.4965 2.54736 33.284C2.54736 32.0653 3.55027 31.0793 4.77605 31.0793C6.00802 31.0793 7.00474 32.0714 7.00474 33.284C7.00474 34.5027 6.00802 35.4886 4.77605 35.4886Z" fill="url(#paint6_radial_689_2892)"/>
<path d="M4.77605 35.4886C3.54408 35.4886 2.54736 34.4965 2.54736 33.284C2.54736 32.0653 3.55027 31.0793 4.77605 31.0793C6.00802 31.0793 7.00474 32.0714 7.00474 33.284C7.00474 34.5027 6.00802 35.4886 4.77605 35.4886Z" fill="url(#paint7_radial_689_2892)"/>
<path d="M25.8991 4.40932C24.6176 4.23173 23.3795 4.97885 22.9214 6.17303C22.1289 8.24294 20.1045 9.71269 17.7397 9.71269C16.8915 9.71269 16.0867 9.52285 15.3686 9.18603C13.468 8.29193 11.2146 8.73898 9.91448 10.3802C9.88353 10.417 9.85257 10.4537 9.82781 10.4904C8.24296 12.4991 8.61441 15.4386 10.6883 16.9451C12.4713 18.2434 13.629 20.3317 13.629 22.6894C13.629 25.5983 11.8646 28.103 9.33255 29.2115C7.84056 29.8606 7.28339 31.6611 8.09438 33.0573C8.10677 33.0818 8.12534 33.1063 8.13772 33.1308C8.78156 34.2148 10.0754 34.6986 11.295 34.3617C11.7532 34.2331 12.2546 34.2025 12.7684 34.276C14.2357 34.4965 15.4305 35.66 15.6719 37.1053C15.6719 37.1175 15.6781 37.1359 15.6781 37.1482C15.9319 38.7833 17.0649 40.1673 18.6869 40.5776C20.4389 41.0185 22.2899 41.2145 24.2029 41.1226C33.8172 40.6694 41.5928 32.892 41.9457 23.3814C42.3048 13.7545 35.1977 5.69536 25.8991 4.40932ZM31.6194 16.2837H24.9829C24.4938 16.2837 24.1224 16.4123 23.8747 16.6695C23.6271 16.9268 23.5033 17.2697 23.5033 17.6922V20.6563L27.6945 20.7665C29.2422 20.8094 30.4741 22.0648 30.4741 23.5958L23.5095 23.7917V26.9946C23.5095 28.9175 21.9308 30.4791 19.9869 30.4791V17.037C19.9869 16.2654 20.1045 15.6223 20.346 15.1079C20.5812 14.5935 20.897 14.1832 21.2932 13.8831C21.6894 13.5831 22.1289 13.3748 22.5994 13.2462C23.0761 13.1176 23.5404 13.0564 24.0048 13.0564C24.5743 13.0564 25.2863 13.0625 26.1344 13.0686C26.9825 13.0748 27.8864 13.1054 28.846 13.1482C28.8707 13.1482 28.8955 13.1483 28.9203 13.1544C30.437 13.2279 31.6194 14.4772 31.6194 15.9775V16.2837Z" fill="url(#paint8_radial_689_2892)"/>
<path d="M24.314 40.5041C24.023 40.5163 23.732 40.5225 23.4473 40.5225C21.9491 40.5225 20.4633 40.3387 19.027 39.9713C17.7208 39.6406 16.7364 38.4954 16.5136 37.0624L16.5074 37.0073C16.2226 35.2926 14.8235 33.9147 13.0962 33.6514C12.8857 33.6207 12.6753 33.6024 12.4648 33.6024C12.0933 33.6024 11.7281 33.6514 11.3752 33.7493C11.1771 33.8045 10.979 33.829 10.7747 33.829C10.0132 33.829 9.33221 33.4431 8.95458 32.8062L8.91124 32.7328C8.60789 32.2122 8.53979 31.5937 8.72552 31.0242C8.91124 30.4608 9.30745 30.0198 9.83986 29.7871C12.6567 28.5439 14.4768 25.7575 14.4768 22.6894C14.4768 20.2337 13.2881 17.8943 11.3009 16.4368C10.4589 15.8183 9.91415 14.9058 9.77176 13.8586C9.62318 12.7869 9.90796 11.7275 10.5766 10.8763L10.6632 10.766C11.369 9.87192 12.4338 9.36363 13.5853 9.36363C14.1672 9.36363 14.7616 9.49835 15.3002 9.75556C16.1235 10.1475 17.0088 10.3435 17.9251 10.3435C20.4571 10.3435 22.7601 8.75735 23.6577 6.39962C23.9735 5.57288 24.7721 5.0156 25.645 5.0156C25.7379 5.0156 25.8369 5.02172 25.9298 5.03397C35.0179 6.30163 42.2487 14.1771 41.933 23.3386C42.2797 13.73 35.185 5.68923 25.8988 4.40932C24.6173 4.23173 23.3792 4.97885 22.921 6.17303C22.1286 8.24294 20.1042 9.71269 17.7393 9.71269C16.8912 9.71269 16.0864 9.52285 15.3683 9.18603C13.4677 8.29193 11.2142 8.7451 9.91415 10.3802C9.8832 10.417 9.85224 10.4537 9.82748 10.4904C8.24263 12.4991 8.61408 15.4386 10.688 16.9451C12.471 18.2434 13.6286 20.3317 13.6286 22.6894C13.6286 25.5983 11.8643 28.103 9.33222 29.2115C7.84642 29.8606 7.28306 31.6611 8.10024 33.0573C8.11263 33.0818 8.1312 33.1063 8.14358 33.1308C8.78123 34.2148 10.0813 34.6986 11.3009 34.3617C11.759 34.2331 12.2543 34.2025 12.7743 34.276C14.2415 34.4965 15.4364 35.66 15.6778 37.1114C15.6778 37.1236 15.684 37.142 15.684 37.1543C15.9378 38.7894 17.0707 40.1734 18.6927 40.5837C20.4447 41.0246 22.2958 41.2206 24.2087 41.1287C33.8045 40.6817 41.5677 32.9287 41.9516 23.4365C41.5739 32.5919 33.4887 40.0693 24.314 40.5041Z" fill="url(#paint9_radial_689_2892)"/>
<path d="M24.314 40.5041C24.023 40.5163 23.732 40.5225 23.4473 40.5225C21.9491 40.5225 20.4633 40.3387 19.027 39.9713C17.7208 39.6406 16.7364 38.4954 16.5136 37.0624L16.5074 37.0073C16.2226 35.2926 14.8235 33.9147 13.0962 33.6514C12.8857 33.6207 12.6753 33.6024 12.4648 33.6024C12.0933 33.6024 11.7281 33.6514 11.3752 33.7493C11.1771 33.8045 10.979 33.829 10.7747 33.829C10.0132 33.829 9.33221 33.4431 8.95458 32.8062L8.91124 32.7328C8.60789 32.2122 8.53979 31.5937 8.72552 31.0242C8.91124 30.4608 9.30745 30.0198 9.83986 29.7871C12.6567 28.5439 14.4768 25.7575 14.4768 22.6894C14.4768 20.2337 13.2881 17.8943 11.3009 16.4368C10.4589 15.8183 9.91415 14.9058 9.77176 13.8586C9.62318 12.7869 9.90796 11.7275 10.5766 10.8763L10.6632 10.766C11.369 9.87192 12.4338 9.36363 13.5853 9.36363C14.1672 9.36363 14.7616 9.49835 15.3002 9.75556C16.1235 10.1475 17.0088 10.3435 17.9251 10.3435C20.4571 10.3435 22.7601 8.75735 23.6577 6.39962C23.9735 5.57288 24.7721 5.0156 25.645 5.0156C25.7379 5.0156 25.8369 5.02172 25.9298 5.03397C35.0179 6.30163 42.2487 14.1771 41.933 23.3386C42.2797 13.73 35.185 5.68923 25.8988 4.40932C24.6173 4.23173 23.3792 4.97885 22.921 6.17303C22.1286 8.24294 20.1042 9.71269 17.7393 9.71269C16.8912 9.71269 16.0864 9.52285 15.3683 9.18603C13.4677 8.29193 11.2142 8.7451 9.91415 10.3802C9.8832 10.417 9.85224 10.4537 9.82748 10.4904C8.24263 12.4991 8.61408 15.4386 10.688 16.9451C12.471 18.2434 13.6286 20.3317 13.6286 22.6894C13.6286 25.5983 11.8643 28.103 9.33222 29.2115C7.84642 29.8606 7.28306 31.6611 8.10024 33.0573C8.11263 33.0818 8.1312 33.1063 8.14358 33.1308C8.78123 34.2148 10.0813 34.6986 11.3009 34.3617C11.759 34.2331 12.2543 34.2025 12.7743 34.276C14.2415 34.4965 15.4364 35.66 15.6778 37.1114C15.6778 37.1236 15.684 37.142 15.684 37.1543C15.9378 38.7894 17.0707 40.1734 18.6927 40.5837C20.4447 41.0246 22.2958 41.2206 24.2087 41.1287C33.8045 40.6817 41.5677 32.9287 41.9516 23.4365C41.5739 32.5919 33.4887 40.0693 24.314 40.5041Z" fill="url(#paint10_radial_689_2892)"/>
<path d="M6.41647 28.5683C9.69538 28.5683 12.3535 25.9389 12.3535 22.6954C12.3535 19.4519 9.69538 16.8225 6.41647 16.8225C3.13757 16.8225 0.479492 19.4519 0.479492 22.6954C0.479492 25.9389 3.13757 28.5683 6.41647 28.5683Z" fill="url(#paint11_radial_689_2892)"/>
<path d="M6.41647 28.5683C9.69538 28.5683 12.3535 25.9389 12.3535 22.6954C12.3535 19.4519 9.69538 16.8225 6.41647 16.8225C3.13757 16.8225 0.479492 19.4519 0.479492 22.6954C0.479492 25.9389 3.13757 28.5683 6.41647 28.5683Z" fill="url(#paint12_radial_689_2892)"/>
<path d="M61.0795 21.7273H57.9205C57.9432 21.4583 57.928 21.2159 57.875 21C57.822 20.7841 57.7311 20.5985 57.6023 20.4432C57.4735 20.2841 57.3049 20.1629 57.0966 20.0795C56.8883 19.9962 56.6402 19.9545 56.3523 19.9545C55.7992 19.9545 55.3049 20.0928 54.8693 20.3693C54.4337 20.642 54.072 21.0341 53.7841 21.5455C53.4962 22.053 53.2917 22.6591 53.1705 23.3636C53.0644 24.0455 53.0606 24.6117 53.1591 25.0625C53.2614 25.5133 53.4602 25.8504 53.7557 26.0739C54.0549 26.2973 54.4432 26.4091 54.9205 26.4091C55.2386 26.4091 55.5303 26.3712 55.7955 26.2955C56.0644 26.2197 56.303 26.1117 56.5114 25.9716C56.7235 25.8277 56.9034 25.6572 57.0511 25.4602C57.2027 25.2595 57.3182 25.0379 57.3977 24.7955H60.5795C60.4583 25.2879 60.2424 25.7917 59.9318 26.3068C59.6212 26.8182 59.2197 27.2898 58.7273 27.7216C58.2348 28.1496 57.6553 28.4962 56.9886 28.7614C56.322 29.0265 55.572 29.1591 54.7386 29.1591C53.6477 29.1591 52.7064 28.9205 51.9148 28.4432C51.1269 27.9659 50.5549 27.2689 50.1989 26.3523C49.8466 25.4356 49.7765 24.3182 49.9886 23C50.2008 21.7273 50.6193 20.661 51.2443 19.8011C51.8693 18.9413 52.6288 18.2936 53.5227 17.858C54.4167 17.4223 55.3674 17.2045 56.375 17.2045C57.1364 17.2045 57.8182 17.3049 58.4205 17.5057C59.0265 17.7064 59.536 18 59.9489 18.3864C60.3655 18.7689 60.6723 19.2405 60.8693 19.8011C61.0663 20.3617 61.1364 21.0038 61.0795 21.7273ZM61.3196 29L63.2514 17.3636H68.2741C69.1378 17.3636 69.867 17.5208 70.4616 17.8352C71.0563 18.1496 71.4844 18.6023 71.7457 19.1932C72.0071 19.7841 72.0696 20.4924 71.9332 21.3182C71.7969 22.1515 71.4957 22.8542 71.0298 23.4261C70.5677 23.9943 69.9787 24.4261 69.2628 24.7216C68.5507 25.0133 67.7514 25.1591 66.8651 25.1591H63.8651L64.2741 22.7045H66.6378C67.009 22.7045 67.3348 22.6591 67.6151 22.5682C67.8954 22.4735 68.1226 22.3258 68.2969 22.125C68.4711 21.9205 68.5848 21.6515 68.6378 21.3182C68.6908 20.9848 68.6643 20.714 68.5582 20.5057C68.4522 20.2936 68.276 20.1383 68.0298 20.0398C67.7836 19.9375 67.4787 19.8864 67.1151 19.8864H66.0014L64.4787 29H61.3196ZM69.0241 23.6591L71.0469 29H67.6151L65.6605 23.6591H69.0241ZM74.0952 17.3636H78.027L79.6406 23.9545H79.777L83.5724 17.3636H87.5043L85.5724 29H82.4815L83.5952 22.2727H83.5043L79.8224 28.9091H77.9588L76.4815 22.2273H76.3906L75.2543 29H72.1634L74.0952 17.3636Z" fill="#2477E3"/>
<path d="M61.0795 21.7273H57.9205C57.9432 21.4583 57.928 21.2159 57.875 21C57.822 20.7841 57.7311 20.5985 57.6023 20.4432C57.4735 20.2841 57.3049 20.1629 57.0966 20.0795C56.8883 19.9962 56.6402 19.9545 56.3523 19.9545C55.7992 19.9545 55.3049 20.0928 54.8693 20.3693C54.4337 20.642 54.072 21.0341 53.7841 21.5455C53.4962 22.053 53.2917 22.6591 53.1705 23.3636C53.0644 24.0455 53.0606 24.6117 53.1591 25.0625C53.2614 25.5133 53.4602 25.8504 53.7557 26.0739C54.0549 26.2973 54.4432 26.4091 54.9205 26.4091C55.2386 26.4091 55.5303 26.3712 55.7955 26.2955C56.0644 26.2197 56.303 26.1117 56.5114 25.9716C56.7235 25.8277 56.9034 25.6572 57.0511 25.4602C57.2027 25.2595 57.3182 25.0379 57.3977 24.7955H60.5795C60.4583 25.2879 60.2424 25.7917 59.9318 26.3068C59.6212 26.8182 59.2197 27.2898 58.7273 27.7216C58.2348 28.1496 57.6553 28.4962 56.9886 28.7614C56.322 29.0265 55.572 29.1591 54.7386 29.1591C53.6477 29.1591 52.7064 28.9205 51.9148 28.4432C51.1269 27.9659 50.5549 27.2689 50.1989 26.3523C49.8466 25.4356 49.7765 24.3182 49.9886 23C50.2008 21.7273 50.6193 20.661 51.2443 19.8011C51.8693 18.9413 52.6288 18.2936 53.5227 17.858C54.4167 17.4223 55.3674 17.2045 56.375 17.2045C57.1364 17.2045 57.8182 17.3049 58.4205 17.5057C59.0265 17.7064 59.536 18 59.9489 18.3864C60.3655 18.7689 60.6723 19.2405 60.8693 19.8011C61.0663 20.3617 61.1364 21.0038 61.0795 21.7273ZM61.3196 29L63.2514 17.3636H68.2741C69.1378 17.3636 69.867 17.5208 70.4616 17.8352C71.0563 18.1496 71.4844 18.6023 71.7457 19.1932C72.0071 19.7841 72.0696 20.4924 71.9332 21.3182C71.7969 22.1515 71.4957 22.8542 71.0298 23.4261C70.5677 23.9943 69.9787 24.4261 69.2628 24.7216C68.5507 25.0133 67.7514 25.1591 66.8651 25.1591H63.8651L64.2741 22.7045H66.6378C67.009 22.7045 67.3348 22.6591 67.6151 22.5682C67.8954 22.4735 68.1226 22.3258 68.2969 22.125C68.4711 21.9205 68.5848 21.6515 68.6378 21.3182C68.6908 20.9848 68.6643 20.714 68.5582 20.5057C68.4522 20.2936 68.276 20.1383 68.0298 20.0398C67.7836 19.9375 67.4787 19.8864 67.1151 19.8864H66.0014L64.4787 29H61.3196ZM69.0241 23.6591L71.0469 29H67.6151L65.6605 23.6591H69.0241ZM74.0952 17.3636H78.027L79.6406 23.9545H79.777L83.5724 17.3636H87.5043L85.5724 29H82.4815L83.5952 22.2727H83.5043L79.8224 28.9091H77.9588L76.4815 22.2273H76.3906L75.2543 29H72.1634L74.0952 17.3636Z" fill="url(#paint13_radial_689_2892)"/>
</g>
<defs>
<radialGradient id="paint0_radial_689_2892" cx="0" cy="0" r="1" gradientUnits="userSpaceOnUse" gradientTransform="translate(19.2352 1.46155) scale(8.47288 8.38143)">
<stop stop-color="#8CEA9A"/>
<stop offset="0.2821" stop-color="#61D673"/>
<stop offset="1" stop-color="#45814D"/>
</radialGradient>
<radialGradient id="paint1_radial_689_2892" cx="0" cy="0" r="1" gradientUnits="userSpaceOnUse" gradientTransform="translate(19.4617 1.20426) scale(8.00548 7.29566)">
<stop stop-color="#95BBEC"/>
<stop offset="0.2821" stop-color="#4F94EE"/>
<stop offset="1" stop-color="#2477E3"/>
</radialGradient>
<radialGradient id="paint2_radial_689_2892" cx="0" cy="0" r="1" gradientUnits="userSpaceOnUse" gradientTransform="translate(5.78923 6.14147) scale(4.65096 4.60076)">
<stop stop-color="#8CEA9A"/>
<stop offset="0.2821" stop-color="#61D673"/>
<stop offset="1" stop-color="#45814D"/>
</radialGradient>
<radialGradient id="paint3_radial_689_2892" cx="0" cy="0" r="1" gradientUnits="userSpaceOnUse" gradientTransform="translate(7.76982 5.17802) scale(6.29084 5.73306)">
<stop stop-color="#95BBEC"/>
<stop offset="0.2821" stop-color="#4F94EE"/>
<stop offset="1" stop-color="#2477E3"/>
</radialGradient>
<radialGradient id="paint4_radial_689_2892" cx="0" cy="0" r="1" gradientUnits="userSpaceOnUse" gradientTransform="translate(11.8483 38.9829) scale(3.40701 3.37024)">
<stop stop-color="#8CEA9A"/>
<stop offset="0.2821" stop-color="#61D673"/>
<stop offset="1" stop-color="#45814D"/>
</radialGradient>
<radialGradient id="paint5_radial_689_2892" cx="0" cy="0" r="1" gradientUnits="userSpaceOnUse" gradientTransform="translate(13.1207 36.122) scale(4.17073 3.80092)">
<stop stop-color="#95BBEC"/>
<stop offset="0.2821" stop-color="#4F94EE"/>
<stop offset="1" stop-color="#2477E3"/>
</radialGradient>
<radialGradient id="paint6_radial_689_2892" cx="0" cy="0" r="1" gradientUnits="userSpaceOnUse" gradientTransform="translate(3.4656 33.9747) scale(3.60067 3.5618)">
<stop stop-color="#8CEA9A"/>
<stop offset="0.2821" stop-color="#61D673"/>
<stop offset="1" stop-color="#45814D"/>
</radialGradient>
<radialGradient id="paint7_radial_689_2892" cx="0" cy="0" r="1" gradientUnits="userSpaceOnUse" gradientTransform="translate(5.67342 31.7067) scale(4.17073 3.80092)">
<stop stop-color="#95BBEC"/>
<stop offset="0.2821" stop-color="#4F94EE"/>
<stop offset="1" stop-color="#2477E3"/>
</radialGradient>
<radialGradient id="paint8_radial_689_2892" cx="0" cy="0" r="1" gradientUnits="userSpaceOnUse" gradientTransform="translate(31.7329 9.61412) scale(32.0353 31.6895)">
<stop stop-color="#95BBEC"/>
<stop offset="0.2821" stop-color="#4F94EE"/>
<stop offset="1" stop-color="#2477E3"/>
</radialGradient>
<radialGradient id="paint9_radial_689_2892" cx="0" cy="0" r="1" gradientUnits="userSpaceOnUse" gradientTransform="translate(36.0505 10.2755) scale(46.5283 46.0261)">
<stop stop-color="#8CEA9A"/>
<stop offset="0.2821" stop-color="#61D673"/>
<stop offset="1" stop-color="#45814D"/>
</radialGradient>
<radialGradient id="paint10_radial_689_2892" cx="0" cy="0" r="1" gradientUnits="userSpaceOnUse" gradientTransform="translate(31.7287 9.61499) scale(32.0258 31.6948)">
<stop stop-color="#95BBEC"/>
<stop offset="0.2821" stop-color="#4F94EE"/>
<stop offset="1" stop-color="#2477E3"/>
</radialGradient>
<radialGradient id="paint11_radial_689_2892" cx="0" cy="0" r="1" gradientUnits="userSpaceOnUse" gradientTransform="translate(3.71444 19.0317) scale(9.91037 9.80341)">
<stop stop-color="#8CEA9A"/>
<stop offset="0.2821" stop-color="#61D673"/>
<stop offset="1" stop-color="#45814D"/>
</radialGradient>
<radialGradient id="paint12_radial_689_2892" cx="0" cy="0" r="1" gradientUnits="userSpaceOnUse" gradientTransform="translate(8.80696 18.4938) scale(11.1104 10.1252)">
<stop stop-color="#95BBEC"/>
<stop offset="0.2821" stop-color="#4F94EE"/>
<stop offset="1" stop-color="#2477E3"/>
</radialGradient>
<radialGradient id="paint13_radial_689_2892" cx="0" cy="0" r="1" gradientUnits="userSpaceOnUse" gradientTransform="translate(76.3515 14.415) scale(36.4919 20.6887)">
<stop stop-color="#95BBEC"/>
<stop offset="0.2821" stop-color="#4F94EE"/>
<stop offset="1" stop-color="#2477E3"/>
</radialGradient>
<clipPath id="clip0_689_2892">
<rect width="144" height="41" fill="white"/>
</clipPath>
</defs>
</svg>
