<svg width="25" height="25" viewBox="0 0 25 25" fill="none" xmlns="http://www.w3.org/2000/svg">
<g opacity="0.5">
<path fill-rule="evenodd" clip-rule="evenodd" d="M12.5002 9.37451C10.7744 9.37451 9.37524 10.7736 9.37524 12.4995C9.37524 14.2254 10.7744 15.6245 12.5002 15.6245C14.2261 15.6245 15.6252 14.2254 15.6252 12.4995C15.6252 10.7736 14.2261 9.37451 12.5002 9.37451ZM7.81274 12.4995C7.81274 9.91068 9.91141 7.81201 12.5002 7.81201C15.0891 7.81201 17.1877 9.91068 17.1877 12.4995C17.1877 15.0883 15.0891 17.187 12.5002 17.187C9.91141 17.187 7.81274 15.0883 7.81274 12.4995Z" fill="white"/>
<path d="M9.02551 4.6392C10.777 3.86518 12.7367 3.69823 14.5939 4.16484C16.45 4.63119 18.0974 5.70373 19.2748 7.21239L19.2767 7.21485C20.4529 8.72293 21.0924 10.5802 21.0941 12.4925L21.0941 12.4995C21.0941 13.5037 20.9091 14.3152 20.5771 14.8492C20.2743 15.3363 19.8364 15.6245 19.141 15.6245C18.4455 15.6245 18.0077 15.3363 17.7049 14.8492C17.3729 14.3152 17.1879 13.5037 17.1879 12.4995V8.59326C17.1879 8.16179 16.8381 7.81201 16.4066 7.81201C15.9751 7.81201 15.6254 8.16179 15.6254 8.59326V12.4995C15.6254 13.6527 15.8309 14.7943 16.3779 15.6741C16.9539 16.6008 17.8833 17.187 19.141 17.187C20.3987 17.187 21.328 16.6008 21.9041 15.6741C22.4498 14.7963 22.6557 13.6577 22.6566 12.5071L22.6566 12.4995C22.6564 10.2377 21.9013 8.04072 20.511 6.25677L20.5088 6.25391C19.1171 4.46946 17.1694 3.20087 14.9746 2.64944C12.7798 2.098 10.4638 2.29531 8.39392 3.21004C6.32406 4.12478 4.61895 5.70456 3.54916 7.6987C2.47937 9.69285 2.10616 11.9871 2.48876 14.2176C2.87136 16.448 3.98785 18.4867 5.66108 20.0103C7.3343 21.5339 9.46842 22.4551 11.7248 22.6278C13.9812 22.8004 16.2306 22.2145 18.1161 20.9632C18.4756 20.7246 18.5736 20.2397 18.3351 19.8802C18.0965 19.5207 17.6116 19.4227 17.2521 19.6613C15.6566 20.7201 13.7533 21.2159 11.844 21.0698C9.93472 20.9237 8.1289 20.1443 6.71307 18.855C5.29725 17.5658 4.35251 15.8407 4.02877 13.9534C3.70503 12.0661 4.02082 10.1247 4.92604 8.43735C5.83126 6.74998 7.27407 5.41322 9.02551 4.6392Z" fill="white"/>
</g>
</svg>
