<svg width="58" height="58" viewBox="0 0 58 58" fill="none" xmlns="http://www.w3.org/2000/svg">
<path d="M7.25 41.0832L19.8891 26.3376C20.8624 25.202 22.6231 25.2143 23.5805 26.3632L32.1392 36.6336C33.0489 37.7253 34.6997 37.8002 35.7046 36.7953L39.1741 33.3258C40.1926 32.3073 41.8703 32.4002 42.77 33.525L50.75 43.4999" stroke="white" stroke-width="2" stroke-linecap="round" stroke-linejoin="round"/>
<path d="M48.3333 7.25H9.66667C8.33198 7.25 7.25 8.33198 7.25 9.66667V48.3333C7.25 49.668 8.33198 50.75 9.66667 50.75H48.3333C49.668 50.75 50.75 49.668 50.75 48.3333V9.66667C50.75 8.33198 49.668 7.25 48.3333 7.25Z" stroke="white" stroke-width="2" stroke-linecap="round" stroke-linejoin="round"/>
<path d="M33.8333 19.3334C33.8333 17.9987 34.9152 16.9167 36.2499 16.9167C37.5846 16.9167 38.6666 17.9987 38.6666 19.3334C38.6666 20.6681 37.5846 21.7501 36.2499 21.7501C34.9152 21.7501 33.8333 20.6681 33.8333 19.3334Z" stroke="white" stroke-width="2" stroke-linecap="round" stroke-linejoin="round"/>
</svg>
