<svg width="19" height="19" viewBox="0 0 19 19" fill="none" xmlns="http://www.w3.org/2000/svg">
<path d="M17.433 0.894059C17.1791 0.905262 16.9425 0.979232 16.7342 1.06343C16.5391 1.14192 15.7936 1.46166 14.6193 1.96523C13.4441 2.46922 11.8879 3.13734 10.2278 3.85121C6.90778 5.27895 3.17516 6.88608 1.26331 7.70863C1.19141 7.73955 0.940564 7.81969 0.674316 8.02754C0.408069 8.23539 0.125 8.6661 0.125 9.14601C0.125 9.533 0.309427 9.91745 0.541565 10.147C0.773702 10.3765 1.01933 10.4899 1.22974 10.5758C1.99315 10.8873 4.36082 11.8562 4.80792 12.0391C4.96527 12.5211 5.82226 15.1426 6.02099 15.7851C6.152 16.2091 6.27672 16.4746 6.43909 16.6854C6.52027 16.7907 6.61464 16.8831 6.729 16.9555C6.77471 16.9844 6.82483 17.0067 6.87549 17.0272L6.87854 17.0287C6.89021 17.0334 6.90027 17.0413 6.91211 17.0455C6.93444 17.0533 6.94938 17.0542 6.97925 17.0607C7.09825 17.0992 7.2184 17.1233 7.32562 17.1233C7.78278 17.1233 8.06262 16.8715 8.06262 16.8715L8.07941 16.8593L10.4308 14.8253L13.2827 17.5231C13.3228 17.5799 13.6973 18.0938 14.5232 18.0938C15.0136 18.0938 15.4026 17.8477 15.6523 17.5856C15.9021 17.3236 16.0577 17.0483 16.1238 16.7022V16.7006C16.1857 16.3736 18.814 2.88075 18.814 2.88075L18.8094 2.89906C18.8863 2.54788 18.9065 2.22083 18.8216 1.89808C18.7367 1.57534 18.513 1.26633 18.2357 1.10005C17.9583 0.933803 17.687 0.882852 17.433 0.894056L17.433 0.894059ZM17.2866 2.52675C17.2828 2.54955 17.2894 2.53808 17.2835 2.5649L17.282 2.57405L17.2805 2.58321C17.2805 2.58321 14.6848 15.9034 14.5888 16.4107C14.5958 16.3724 14.5637 16.4486 14.5308 16.4946C14.4843 16.4626 14.3889 16.4214 14.3889 16.4214L14.3737 16.4046L10.4781 12.7196L7.72388 15.1L8.54328 11.8194C8.54328 11.8194 13.6653 6.51729 13.9739 6.2087C14.2223 5.96182 14.2745 5.87576 14.2745 5.79061C14.2745 5.67654 14.215 5.59377 14.0822 5.59377C13.9627 5.59377 13.8019 5.70998 13.716 5.76467C12.5964 6.47837 7.68111 9.3431 5.47778 10.6246C5.12764 10.4813 2.69505 9.48554 1.87061 9.14907C1.87685 9.14633 1.87479 9.1473 1.88129 9.14449C3.79365 8.32172 7.52471 6.7146 10.8443 5.28707C12.5041 4.5733 14.0615 3.90467 15.2358 3.40108C16.392 2.90524 17.1954 2.56399 17.2866 2.52675L17.2866 2.52675Z" fill="white"/>
</svg>
