<svg width="60" height="60" viewBox="0 0 60 60" fill="none" xmlns="http://www.w3.org/2000/svg">
<path opacity="0.5" d="M46.5188 53.2189C42.4601 48.6859 36.5629 45.8333 29.9995 45.8333C23.4361 45.8333 17.5389 48.6859 13.4801 53.2189M58.5 30C58.5 45.7401 45.7401 58.5 30 58.5C14.2599 58.5 1.5 45.7401 1.5 30C1.5 14.2599 14.2599 1.5 30 1.5C45.7401 1.5 58.5 14.2599 58.5 30ZM39.5 26.8333C39.5 32.08 35.2467 36.3333 30 36.3333C24.7533 36.3333 20.5 32.08 20.5 26.8333C20.5 21.5866 24.7533 17.3333 30 17.3333C35.2467 17.3333 39.5 21.5866 39.5 26.8333Z" stroke="white" stroke-width="3" stroke-linecap="round" stroke-linejoin="round"/>
</svg>
